{"title":"When A Stranger Calls(2006) DVDRip Dual Audio [Hin-Eng] by imkha","uid":6381105,"size":380189689,"categoryP":"video","categoryS":"movies","magnet":"?xt=urn:btih:7d4fe3869c16c18a678a44fb0d5b6708fea3e99d&amp;dn=When+A+Stranger+Calls%282006%29+DVDRip+Dual+Audio+%5BHin-Eng%5D+by+imkha&amp;tr=udp%3A%2F%2Ftracker.openbittorrent.com%3A80&amp;tr=udp%3A%2F%2Fopen.demonii.com%3A1337&amp;tr=udp%3A%2F%2Ftracker.coppersurfer.tk%3A6969&amp;tr=udp%3A%2F%2Fexodus.desync.com%3A6969","seeders":0,"leechers":1,"uploader":"HDvideos","files":3,"time":1304986026,"description":"When A Stranger Calls(2006) DVDRip Dual Audio [Hin-Eng] by imkhan -=[TDT]=@Mastitorrents\n\nCheck out MY latest Uploads:\n &lt;a href=&quot;\nhttp://thepiratebay.se/user/HDvideos/0/7&quot; rel=&quot;nofollow&quot; target=&quot;_NEW&quot;&gt;\nhttp://thepiratebay.se/user/HDvideos/0/7&lt;/a&gt;\n\nStay updated with us....\n\nSeed after downloading....\n\nEnjoY with HDvideos..\n\nTorrent From Mastitorrents\n\nTeam Mastitorrents\n\nSay thanks if u like my posts\n\nGive ur valuable feedbacks\n\nQuality Uploads from HDvideos\n\nGeneral\nComplete name :When A Stranger Calls 2006 DvDrip Dual Audio [Hin-Eng] by imkhan -=[TDT]=-\\When A Stranger Calls 2006 DvDrip Dual Audio [Hin-Eng] by imkhan -=[TDT]=-.mkv\nFormat : Matroska\nFile size : 356 MiB\nDuration : 1h 20mn[end credit cut]\nOverall bit rate : 618 Kbps\nMovie name : When A Stranger Calls 2006 DvDrip Dual Audio [Hin-Eng] by imkhan -=[TDT]=-\nEncoded date : UTC 2011-05-04 16:00:52\nWriting application : mkvmerge v4.7.0 ('Just Like You Imagined') built on Apr 21 2011 01:13:14\nWriting library : libebml v1.2.0 + libmatroska v1.1.0\n\nVideo\nID : 1\nFormat : AVC\nFormat/Info : Advanced Video Codec\nFormat profile : &lt;a class=&quot;__cf_email__&quot; href=&quot;/cdn-cgi/l/email-protection&quot; data-cfemail=&quot;5a12333d321a166e746a&quot;&gt;[email&amp;#160;protected]&lt;/a&gt;&lt;script cf-hash='f9e31' type=&quot;text/javascript&quot;&gt;\n/* &lt;![CDATA[ */!function(){try{var t=&quot;currentScript&quot;in document?document.currentScript:function(){for(var t=document.getElementsByTagName(&quot;script&quot;),e=t.length;e--;)if(t[e].getAttribute(&quot;cf-hash&quot;))return t[e]}();if(t&amp;&amp;t.previousSibling){var e,r,n,i,c=t.previousSibling,a=c.getAttribute(&quot;data-cfemail&quot;);if(a){for(e=&quot;&quot;,r=parseInt(a.substr(0,2),16),n=2;a.length-n;n+=2)i=parseInt(a.substr(n,2),16)^r,e+=String.fromCharCode(i);e=document.createTextNode(e),c.parentNode.replaceChild(e,c)}}}catch(u){}}();/* ]]&gt; */&lt;/script&gt;\nFormat settings, CABAC : Yes\nFormat settings, ReFrames : 3 frames\nMuxing mode : Container profile=&lt;a class=&quot;__cf_email__&quot; href=&quot;/cdn-cgi/l/email-protection&quot; data-cfemail=&quot;b3e6ddd8dddcc4ddf3879d83&quot;&gt;[email&amp;#160;protected]&lt;/a&gt;&lt;script cf-hash='f9e31' type=&quot;text/javascript&quot;&gt;\n/* &lt;![CDATA[ */!function(){try{var t=&quot;currentScript&quot;in document?document.currentScript:function(){for(var t=document.getElementsByTagName(&quot;script&quot;),e=t.length;e--;)if(t[e].getAttribute(&quot;cf-hash&quot;))return t[e]}();if(t&amp;&amp;t.previousSibling){var e,r,n,i,c=t.previousSibling,a=c.getAttribute(&quot;data-cfemail&quot;);if(a){for(e=&quot;&quot;,r=parseInt(a.substr(0,2),16),n=2;a.length-n;n+=2)i=parseInt(a.substr(n,2),16)^r,e+=String.fromCharCode(i);e=document.createTextNode(e),c.parentNode.replaceChild(e,c)}}}catch(u){}}();/* ]]&gt; */&lt;/script&gt;\nCodec ID : V_MPEG4/ISO/AVC\nDuration : 1h 20mn\nBit rate : 413 Kbps\nWidth : 720 pixels\nHeight : 350 pixels\nDisplay aspect ratio : 2.057\nFrame rate : 25.000 fps\nOriginal frame rate : 23.976 fps\nResolution : 24 bits\nColorimetry : 4:2:0\nScan type : Progressive\nBits/(Pixel*Frame) : 0.066\nStream size : 238 MiB (67%)\nTitle : imkhan\nLanguage : Hindi\n\nAudio #1\nID : 2\nFormat : MPEG Audio\nFormat version : Version 1\nFormat profile : Layer 3\nCodec ID : A_MPEG/L3\nCodec ID/Hint : MP3\nDuration : 1h 20mn\nBit rate mode : Constant\nBit rate : 96.0 Kbps\nChannel(s) : 2 channels\nSampling rate : 44.1 KHz\nResolution : 16 bits\nVideo delay : 2ms\nStream size : 55.3 MiB (16%)\nTitle : imkhan\nLanguage : Hindi\n\nAudio #2\nID : 3\nFormat : MPEG Audio\nFormat version : Version 1\nFormat profile : Layer 3\nCodec ID : A_MPEG/L3\nCodec ID/Hint : MP3\nDuration : 1h 20mn\nBit rate mode : Constant\nBit rate : 96.0 Kbps\nChannel(s) : 2 channels\nSampling rate : 44.1 KHz\nResolution : 16 bits\nStream size : 55.3 MiB (16%)\nTitle : imkhan","torrent":{"xt":"urn:btih:7d4fe3869c16c18a678a44fb0d5b6708fea3e99d","amp;dn":"When+A+Stranger+Calls%282006%29+DVDRip+Dual+Audio+%5BHin-Eng%5D+by+imkha","amp;tr":["udp%3A%2F%2Ftracker.openbittorrent.com%3A80","udp%3A%2F%2Fopen.demonii.com%3A1337","udp%3A%2F%2Ftracker.coppersurfer.tk%3A6969","udp%3A%2F%2Fexodus.desync.com%3A6969"],"infoHash":"7d4fe3869c16c18a678a44fb0d5b6708fea3e99d","infoHashBuffer":{"type":"Buffer","data":[125,79,227,134,156,22,193,138,103,138,68,251,13,91,103,8,254,163,233,157]},"announce":[],"urlList":[]}}